<?xml version="1.0" encoding="utf-8"?>
<!-- Generator: Adobe Illustrator 25.0.1, SVG Export Plug-In . SVG Version: 6.00 Build 0)  -->
<svg version="1.1" id="Layer_3" xmlns="http://www.w3.org/2000/svg" xmlns:xlink="http://www.w3.org/1999/xlink" x="0px" y="0px"
	 viewBox="0 0 400 400" style="enable-background:new 0 0 400 400;" xml:space="preserve">
<style type="text/css">
	.st0{fill:#FFFFFF;stroke:#000000;stroke-width:0.5;}
</style>
<g id="Layer_2">
	
		<image style="overflow:visible;" width="1080" height="1078" xlink:href="6127CA15.png"  transform="matrix(0.3711 0 0 0.3711 0.3697 0)">
	</image>
</g>
<g id="Layer_1">
	<g>
		<path class="st0" d="M166.9,357.9h9.9c5.7,0,10.4,4.4,10.4,9.8c0,5.3-4.7,9.6-10.4,9.6h-5.3v10.3h-4.7V357.9z M182.6,367.7
			c0-2.8-2.6-5.1-5.8-5.1h-5.3v10.1l5.3,0C180,372.7,182.6,370.5,182.6,367.7z"/>
		<path class="st0" d="M189.5,372.8c0-8.5,6.9-15.4,15.3-15.4c8.4,0,15.4,6.9,15.4,15.4c0,8.4-6.9,15.3-15.4,15.3
			C196.4,388.1,189.5,381.2,189.5,372.8z M215.5,372.8c0-5.9-4.8-10.7-10.7-10.7s-10.6,4.8-10.6,10.7c0,5.8,4.8,10.6,10.6,10.6
			S215.5,378.6,215.5,372.8z"/>
		<path class="st0" d="M240.8,387.6l-8-11.5h-3.6v11.5h-4.7l0-29.7h9.2c5.5,0,10.1,4.3,10.1,9.5c0,3.8-2.5,7.2-5.9,8.3l8.6,11.9
			H240.8z M233.8,372.2c2.8,0,5.1-2.2,5.1-4.9c0-2.8-2.4-4.8-5.1-4.8h-4.7v9.7H233.8z"/>
		<path class="st0" d="M267.6,362.5h-8v25.1h-4.7v-25.1h-8v-4.6h20.6V362.5z"/>
		<path class="st0" d="M275.9,362.5v7.9h11.2v4.6h-11.2v12.6h-4.7v-29.8h17.7v4.6H275.9z"/>
		<path class="st0" d="M290.6,372.8c0-8.5,6.9-15.4,15.3-15.4c8.4,0,15.4,6.9,15.4,15.4c0,8.4-6.9,15.3-15.4,15.3
			C297.5,388.1,290.6,381.2,290.6,372.8z M316.6,372.8c0-5.9-4.8-10.7-10.7-10.7s-10.6,4.8-10.6,10.7c0,5.8,4.8,10.6,10.6,10.6
			S316.6,378.6,316.6,372.8z"/>
		<path class="st0" d="M343.5,383v4.6h-17.9v-29.7h4.7v25H343.5z"/>
		<path class="st0" d="M347.2,357.9h4.7v29.7h-4.7V357.9z"/>
		<path class="st0" d="M356.2,372.8c0-8.5,6.9-15.4,15.3-15.4c8.4,0,15.4,6.9,15.4,15.4c0,8.4-6.9,15.3-15.4,15.3
			C363.1,388.1,356.2,381.2,356.2,372.8z M382.2,372.8c0-5.9-4.8-10.7-10.7-10.7s-10.6,4.8-10.6,10.7c0,5.8,4.8,10.6,10.6,10.6
			S382.2,378.6,382.2,372.8z"/>
	</g>
</g>
</svg>
